<?xml version="1.0" encoding="utf-8"?>
<!-- Generator: Adobe Illustrator 27.0.0, SVG Export Plug-In . SVG Version: 6.00 Build 0)  -->
<svg version="1.1" id="Layer_1" xmlns="http://www.w3.org/2000/svg" xmlns:xlink="http://www.w3.org/1999/xlink" x="0px" y="0px"
	 viewBox="0 0 153 53" style="enable-background:new 0 0 153 53;" xml:space="preserve">
<style type="text/css">
	.st0{fill:#EB9940;}
</style>
<g>
	<path class="st0" d="M145.68,34.15l-0.74-1.24c-0.26-0.23-0.18-0.59-0.18-0.59c0.18-1.38,0.01-1.59,0.01-1.59
		c-0.01-0.28-0.43-0.98-0.43-0.98l-0.61-1.21c0.21-0.74-0.3-1.31-0.3-1.31l-0.32-0.55c-0.2-0.51-0.82-0.67-0.82-0.67
		c-1.13-0.56-1.73-0.59-1.73-0.59c-0.55-0.55-1.68-1.34-1.68-1.34c-0.21-0.14-0.38-1.11-0.38-1.11c-0.39-0.13-2.1-0.01-2.1-0.01
		c-0.56,0.11-0.59-0.01-0.59-0.01l-0.83-0.75l0.76,0.6c0.22,0.25,0.36,0.11,0.36,0.11c2.01-0.42,3.85,0.22,3.85,0.22l0.09-0.07
		c0.12-0.08,0.18-0.23,0.18-0.23c0.22-0.39,0.34-0.32,0.34-0.32l0.56-0.79c0.08-0.12,0.03-0.25,0.03-0.25
		c0.08-0.15,0.02-0.18,0.02-0.18l-0.29-0.07l-1.77-0.79c-0.44-0.15-0.42-0.49-0.42-0.49c0.44-0.26,0.18-0.55,0.18-0.55l-0.46-0.51
		l0.6-0.75l-0.38-5.94c-0.62,1.02-1.19,5.47-1.19,5.47l0.29,0.24c-0.73-0.38-2.21-0.73-2.21-0.73c0.04,0.29-0.22,1.08-0.22,1.08
		c-0.29-0.55,1.13-6.91,1.13-6.91c-1.06,0.73-3.47,6.18-3.47,6.18l0.99,2.13l-0.26-0.29l-0.83,2.28c-0.42,1.53-0.86,1.76-0.86,1.76
		c-0.28,0.1-1.3,0.89-1.3,0.89c-0.29,0.24-0.59,0.22-0.59,0.22c-0.33-0.01-1.14,0.11-1.6,0.18c-0.01-0.03-0.02-0.06-0.02-0.1
		c-0.25-0.99-0.69-2.1-1.41-3.16c-1.94-3.14-5.04-2.33-5.21-2.28c0,0-0.01,0-0.01,0l-1.46-1.66c-0.01-0.01-0.02,0-0.02,0.01l0,1.88
		c0,0.01-0.02,0.02-0.02,0l-0.17-1.22c0,0,0,0,0-0.01l-0.41-0.42c-0.01-0.01-0.02,0-0.02,0.01l0.32,2.54c0,0,0,0.01,0,0.01
		l-1.1,1.78c-0.03,0.06-0.05,0.12-0.05,0.18l-0.01,0.76c0,0.09-0.03,0.17-0.08,0.25c-0.05,0.07-0.12,0.19-0.25,0.35
		c-0.59,0.83,0.07,1.14,0.17,1.19c0.1,0.05,0.34,0.33,0.66,0.67c0.32,0.34,0.78,0.07,0.81-0.06c0.04-0.2,0.16-0.64,0.67-0.88
		c0.45-0.22,0.38-0.09,0.8-0.33c0,0,0,0,0,0c0.6-0.48,0.17-1.59,0.09-1.8c0-0.01,0.01-0.02,0.02-0.01c0.75,0.59,0.73,2.24,0.72,2.19
		c-0.01-0.05-0.06,1.56-1.94,2.49c-0.01,0-0.01,0.01,0,0.02c0.21,0.24,1.42-0.07,1.54-0.25c0.12-0.18-0.03,1.24-0.82,1.83
		c0,0,0,0,0,0c-0.36,0.31-0.55,0.52-1.46,1.29c0,0,0,0,0,0c-1.54,1.61,0.21,2.67,0.23,2.68c0,0,0,0,0,0
		c0.01,0.01,0.71,0.49,0.8,1.07c0.06,0.39,0.04,0.43,0.04,0.43c0,0-0.01,0-0.01,0.01c-1.1,1.82-1.53,2.89-1.53,2.91c0,0,0,0,0,0
		c-0.3,0.92-1.12,2.59-1.12,2.59c-0.37,0.68-1.02,1.01-1.13,1.06c-0.01,0-0.02,0-0.02-0.01l-0.15-1.47l-0.17,0.02l-1.29-8.32
		c0,0,0-0.01,0-0.01l0.49-0.43c0,0,0-0.01,0-0.01c0,0-1.8-6.29-1.79-6.32l0.24,6.43c0,0,0,0.01,0.01,0.01l0.61,0.34
		c0,0,0.01,0.01,0.01,0.01l0.02,0.12c0.36,2.49-0.56,2.04-0.6,2.02c0,0,0,0,0,0c-0.05-0.01-1.63-0.38-1.67,0.53
		c0,0.01,0.01,0.02,0.02,0.01c0.74-0.49,2.61,0.73,3.14,3.2c0,0,0,0,0,0c0,0.01,0.01,0.03,0.01,0.04c0,0,0,0,0,0l0.37,2.42
		l-0.19,0.02l1,7.29h0.79h1.13h9.45c-0.08-0.37-0.17-0.75-0.26-1.13c-0.71-3.14-1.45-6.38-1.45-6.38c0.04-1.12-0.82-2.41-0.85-2.44
		c0,0,0,0,0,0c-0.03-0.03-1.22-1.28-1.66-1.7c-0.44-0.42-0.25-1.23-0.25-1.23s0.08-0.32,0.2-0.74c0.16-0.4,0.29-0.81,0.32-1.08
		c0.09-0.29,0.18-0.55,0.26-0.73l-0.27-0.1c0-0.11,0-0.22,0-0.34c0.06,0.02,0.31,0.12,0.67,0.22c0.08,0.11,0.17,0.22,0.17,0.22
		c-0.07,0.18-0.16,0.45-0.26,0.73c-0.03,0.27-0.16,0.68-0.32,1.08c-0.12,0.42-0.2,0.74-0.2,0.74s-0.19,0.81,0.25,1.23
		c0.43,0.42,1.62,1.66,1.66,1.7c0,0,0,0,0,0c0.02,0.03,0.89,1.32,0.85,2.44c0,0,0.74,3.24,1.45,6.38c0.07-0.03,0.11-0.07,0.11-0.07
		l1.57-0.78c0.12-0.02,0.22-0.24,0.22-0.24c0.03,0.44-0.6,0.61-0.6,0.61c-0.24,0.01-0.29,0.29-0.29,0.29l-0.45,1.28h6.46l-0.24-3.02
		c-0.12-1.3-1.53-3.82-1.53-3.82c-0.62-1.36-0.99-1.81-0.99-1.81l-1.17,1.49c-0.83,1.25-0.41,2.85-0.41,2.85s-0.02,0.3-0.25,0.46
		c-0.23,0.17,0.01,0.59,0.01,0.59c-0.01,0.26-0.1,0.15-0.1,0.15l-0.12-0.28c0.03-0.22,0.01-0.38,0.01-0.38
		c-0.04-0.1-0.28-0.25-0.28-0.25l0.19-0.03c0.09-0.04,0.03-0.46,0.03-0.46l-0.73-1.04c-0.15-0.26-0.39-0.14-0.39-0.14
		c-0.24,0.11-0.33-0.01-0.33-0.01c-0.06-0.13-0.43-0.31-0.43-0.31l0.02-0.96c-0.06-0.45,0.09-0.84,0.09-0.84l0.74-1.74
		c0.13-0.22,0.1-0.49,0.1-0.49l-0.2-1.57c-0.14-0.26,0.01-0.43,0.01-0.43c0.18-0.11,0.21-0.29,0.21-0.29
		c0.01-0.32,0.44-0.74,0.44-0.74c1.07-1.64,1.17-3.02,1.17-3.02l0.04,0.08c0.02,1.29-1.21,3.12-1.21,3.12
		c-0.18,0.13-0.03,0.31-0.03,0.31c0.2,0.36,1.49,1.06,1.49,1.06c0.23,0.09,0.39,0.3,0.39,0.3l0.7,1.05v1.1c0,0,0.66,1.48,2.94,2.01
		c2.27,0.53,3.79-0.54,3.79-0.54c0.29-0.08,0.23-0.33,0.23-0.33l-0.06-0.85c-0.12-0.31,0.09-1.1,0.09-1.1l0.44-1.36
		c0.06-0.25,0.26-0.43,0.26-0.43c0.35-0.36,0.79-1.07,0.79-1.07c0.15-0.12,0.45-0.67,0.45-0.67c0.18-0.34,0.29-1.26,0.29-1.26
		c-0.02-0.22,0.12-0.4,0.12-0.4c0.74-0.46,0.7-2.17,0.7-2.17l0.07,0.13l-0.01,0.7c0.01,0.88-0.41,1.23-0.41,1.23
		c-0.49,0.36-0.35,0.82-0.35,0.82c0,0.28-0.19,0.93-0.19,0.93c-0.03,0.1-0.56,0.82-0.56,0.82c-0.11,0.3-0.87,1.1-0.87,1.1
		c-0.21,0.09-0.28,0.54-0.28,0.54c-0.13,0.36,0.01,0.39,0.01,0.39c0.14,0.02,0.13,0.21,0.13,0.21c-0.03,0.46,0.15,0.73,0.15,0.73
		l1.66,3.25c0.2,0.42-0.22,0.53-0.22,0.53l-0.68,0.06l-0.22,0.65l-0.25,0.28c-0.21,0.19-0.15,0.32-0.15,0.32l0.28,0.7
		c-0.13,0.21,0.39,1.81,0.39,1.81c0.11-0.1,0.43-0.02,0.43-0.02c0.11,0.02,0.14,0.17,0.14,0.17c0.22,0.19,1.25,0.21,1.57,0.28
		c0.32,0.07,0.51-0.09,0.51-0.09l1.11-2.28c0.28-0.4,0.17-0.61,0.17-0.61l0.03-2.03l0.36-3.74
		C146.22,34.98,145.68,34.15,145.68,34.15z"/>
	<path class="st0" d="M139.62,39.44c0.08,0.56-0.35,2.3-0.35,2.3c-0.04,0.07-0.2,0.91-0.2,0.91l-0.77,3.96l2.98-0.02
		c-0.09-2.16-1.11-4.6-1.11-4.6C140.37,40.4,139.62,39.44,139.62,39.44z"/>
</g>
<g>
	<path class="st0" d="M148.57,47.29h-38.32V5.71h38.32V47.29z M111.03,46.51h36.76V6.49h-36.76V46.51z"/>
</g>
<g>
	<g>
		<g>
			<path class="st0" d="M39.2,44.21c-1.09-0.56-1.95-1.42-2.58-2.57c-0.63-1.15-0.95-2.57-0.95-4.25c0-1.56,0.34-2.93,1.03-4.12
				c0.69-1.19,1.64-2.11,2.86-2.77c1.22-0.66,2.62-0.98,4.19-0.98c0.77,0,1.54,0.12,2.29,0.35c0.76,0.23,1.38,0.6,1.88,1.09
				c0.49,0.49,0.74,1.1,0.74,1.83c0,0.68-0.2,1.27-0.6,1.76c-0.4,0.5-0.93,0.74-1.6,0.74c-0.32,0-0.64-0.08-0.94-0.23
				c-0.3-0.15-0.46-0.35-0.48-0.6c0-0.02,0.1-0.1,0.31-0.25c0.21-0.15,0.4-0.36,0.58-0.63c0.18-0.26,0.27-0.58,0.27-0.95
				c0-0.65-0.25-1.17-0.76-1.58c-0.51-0.4-1.17-0.6-1.97-0.6c-0.96,0-1.82,0.27-2.59,0.8c-0.77,0.53-1.38,1.31-1.83,2.34
				c-0.45,1.03-0.67,2.25-0.67,3.67c0,1.37,0.22,2.56,0.66,3.57c0.44,1,1.06,1.77,1.85,2.31c0.8,0.53,1.72,0.8,2.77,0.8
				c0.49,0,0.93-0.03,1.3-0.08c0.37-0.05,0.77-0.15,1.21-0.29v-2.36c0-0.54-0.02-0.92-0.06-1.13c-0.04-0.22-0.16-0.38-0.37-0.49
				c-0.21-0.11-0.56-0.16-1.05-0.16c-0.17,0-0.29-0.03-0.37-0.08c-0.08-0.05-0.12-0.19-0.14-0.4c0-0.14,0.04-0.26,0.13-0.36
				s0.2-0.15,0.36-0.15c0.97,0.05,1.82,0.07,2.55,0.07c0.69,0,1.53-0.02,2.5-0.07c0.14,0,0.25,0.05,0.32,0.15s0.12,0.22,0.12,0.36
				c-0.02,0.22-0.06,0.35-0.14,0.4c-0.08,0.05-0.2,0.08-0.37,0.08c-0.46,0-0.8,0.06-1,0.19c-0.2,0.12-0.32,0.3-0.37,0.52
				s-0.07,0.58-0.07,1.08v2.73c-0.91,0.43-1.75,0.73-2.5,0.89c-0.76,0.16-1.71,0.24-2.85,0.24C41.51,45.05,40.29,44.77,39.2,44.21z"
				/>
			<path class="st0" d="M56.55,44c-1.12-0.7-1.99-1.63-2.59-2.79c-0.61-1.16-0.91-2.4-0.91-3.73c0-1.62,0.37-3.03,1.1-4.24
				c0.73-1.21,1.67-2.13,2.81-2.77c1.14-0.64,2.3-0.96,3.47-0.96c1.48,0,2.79,0.35,3.93,1.06c1.13,0.7,2.01,1.63,2.62,2.78
				c0.61,1.15,0.92,2.39,0.92,3.72c0,1.62-0.37,3.04-1.11,4.25c-0.74,1.21-1.69,2.14-2.85,2.78c-1.16,0.64-2.32,0.96-3.5,0.96
				C58.97,45.05,57.67,44.7,56.55,44z M63.04,43.1c0.7-0.63,1.23-1.47,1.58-2.52c0.35-1.06,0.52-2.23,0.52-3.51
				c0-1.19-0.18-2.28-0.53-3.28c-0.35-1-0.89-1.79-1.6-2.39c-0.71-0.59-1.58-0.89-2.59-0.89c-1.54,0-2.71,0.65-3.49,1.96
				c-0.78,1.31-1.17,2.95-1.17,4.95c0,1.21,0.17,2.31,0.52,3.31c0.35,1,0.87,1.81,1.56,2.41c0.7,0.6,1.55,0.9,2.57,0.9
				C61.46,44.03,62.34,43.72,63.04,43.1z"/>
			<path class="st0" d="M71.19,44.51c-0.07-0.1-0.1-0.22-0.1-0.36c0.02-0.23,0.06-0.37,0.14-0.42s0.22-0.07,0.44-0.07
				c0.45,0,0.78-0.08,1-0.24c0.22-0.16,0.35-0.36,0.41-0.6c0.05-0.24,0.09-0.55,0.1-0.94v-9.2c-0.02-0.39-0.05-0.7-0.1-0.94
				c-0.05-0.24-0.19-0.44-0.41-0.6c-0.22-0.16-0.55-0.24-1-0.24h-0.14c-0.15,0-0.26-0.03-0.32-0.08c-0.06-0.05-0.1-0.19-0.12-0.41
				c0-0.14,0.04-0.26,0.1-0.36c0.07-0.1,0.17-0.15,0.29-0.15c1.02,0.05,1.94,0.07,2.76,0.07h3.62c1.48,0,2.83,0.3,4.04,0.89
				c1.21,0.59,2.17,1.45,2.87,2.56c0.7,1.11,1.05,2.43,1.05,3.94c0,1.58-0.4,2.91-1.19,4c-0.8,1.09-1.83,1.9-3.1,2.43
				c-1.27,0.53-2.64,0.8-4.09,0.8h-3.2c-0.82,0-1.74,0.02-2.76,0.07C71.36,44.66,71.26,44.61,71.19,44.51z M81.76,42.05
				c0.84-1.12,1.26-2.68,1.26-4.69c0-1.27-0.23-2.4-0.68-3.39c-0.45-1-1.12-1.77-1.98-2.33c-0.87-0.56-1.89-0.83-3.08-0.83
				l-1.81,0.02v11.33c0,0.6,0.18,1.02,0.54,1.24c0.36,0.22,0.95,0.34,1.77,0.34C79.59,43.73,80.92,43.17,81.76,42.05z"/>
			<path class="st0" d="M90.77,44.21c-0.86-0.56-1.28-1.39-1.28-2.49c0-0.56,0.19-1.02,0.57-1.38c0.38-0.36,0.87-0.54,1.47-0.54
				c0.35,0.02,0.63,0.1,0.81,0.27c0.18,0.16,0.28,0.31,0.28,0.45c0,0.02-0.08,0.07-0.23,0.16c-0.15,0.09-0.29,0.23-0.42,0.42
				c-0.12,0.19-0.18,0.44-0.18,0.76c0,0.73,0.22,1.29,0.66,1.68c0.44,0.39,1.12,0.59,2.05,0.59c0.63,0,1.19-0.12,1.67-0.37
				c0.48-0.25,0.85-0.58,1.1-0.98c0.25-0.41,0.38-0.84,0.38-1.29c0-0.56-0.16-1.03-0.48-1.44c-0.32-0.4-0.71-0.74-1.17-1.01
				c-0.46-0.27-1.1-0.58-1.9-0.94c-0.93-0.42-1.68-0.8-2.25-1.14c-0.57-0.34-1.06-0.79-1.46-1.36c-0.4-0.56-0.6-1.26-0.6-2.1
				c0-1.34,0.46-2.35,1.38-3.01c0.92-0.66,2.13-1,3.63-1c1.17,0,2.2,0.25,3.07,0.74s1.31,1.22,1.31,2.18c0,0.56-0.19,1.02-0.57,1.38
				c-0.38,0.36-0.87,0.55-1.47,0.55c-0.35-0.02-0.63-0.1-0.81-0.27c-0.19-0.16-0.28-0.31-0.28-0.45c0-0.02,0.1-0.07,0.31-0.16
				c0.21-0.09,0.39-0.23,0.56-0.42c0.16-0.18,0.24-0.44,0.24-0.76c0-0.57-0.22-1.02-0.66-1.34c-0.44-0.33-1-0.49-1.68-0.49
				c-0.94,0-1.66,0.22-2.14,0.66c-0.49,0.44-0.73,0.98-0.73,1.63c0,0.54,0.15,0.99,0.44,1.36c0.29,0.36,0.76,0.72,1.41,1.08
				c0.53,0.28,1.1,0.56,1.71,0.83c0.99,0.45,1.77,0.86,2.35,1.23c0.58,0.37,1.07,0.86,1.46,1.46c0.39,0.6,0.59,1.35,0.59,2.25
				c0,0.77-0.24,1.47-0.73,2.1c-0.49,0.63-1.14,1.12-1.97,1.47c-0.83,0.35-1.73,0.53-2.72,0.53C92.87,45.05,91.63,44.77,90.77,44.21
				z"/>
		</g>
		<g>
			<path class="st0" d="M6,25.32c-1.12-0.7-1.99-1.63-2.59-2.79c-0.61-1.16-0.92-2.4-0.92-3.73c0-1.62,0.37-3.03,1.1-4.24
				s1.67-2.13,2.81-2.77s2.3-0.96,3.48-0.96c1.48,0,2.79,0.35,3.93,1.06c1.14,0.7,2.01,1.63,2.62,2.78
				c0.61,1.15,0.91,2.39,0.91,3.72c0,1.62-0.37,3.04-1.11,4.25c-0.74,1.21-1.69,2.14-2.85,2.78c-1.16,0.64-2.33,0.96-3.5,0.96
				C8.41,26.38,7.12,26.02,6,25.32z M12.49,24.42c0.7-0.63,1.23-1.47,1.58-2.52c0.35-1.06,0.52-2.23,0.52-3.51
				c0-1.19-0.18-2.28-0.53-3.28c-0.36-1-0.89-1.79-1.6-2.39c-0.71-0.59-1.58-0.89-2.59-0.89c-1.54,0-2.71,0.65-3.49,1.96
				S5.2,16.74,5.2,18.73c0,1.21,0.17,2.31,0.52,3.31s0.87,1.81,1.56,2.41c0.69,0.6,1.55,0.9,2.57,0.9
				C10.91,25.36,11.79,25.04,12.49,24.42z"/>
			<path class="st0" d="M19.14,25.83c-0.07-0.1-0.1-0.22-0.1-0.36c0.02-0.23,0.06-0.37,0.14-0.42c0.08-0.05,0.22-0.07,0.44-0.07
				c0.45,0,0.78-0.08,1-0.24c0.22-0.16,0.35-0.36,0.41-0.6c0.05-0.24,0.09-0.55,0.1-0.94V14c-0.02-0.39-0.05-0.7-0.1-0.94
				c-0.05-0.24-0.19-0.44-0.41-0.6c-0.22-0.16-0.55-0.24-1-0.24h-0.14c-0.15,0-0.26-0.03-0.32-0.08c-0.06-0.05-0.1-0.19-0.12-0.41
				c0-0.14,0.04-0.26,0.1-0.36c0.07-0.1,0.17-0.15,0.29-0.15c1.02,0.05,1.94,0.07,2.76,0.07h3.62c1.48,0,2.83,0.3,4.04,0.89
				c1.21,0.59,2.17,1.45,2.87,2.56c0.7,1.11,1.05,2.43,1.05,3.94c0,1.58-0.4,2.91-1.19,4c-0.8,1.09-1.83,1.9-3.1,2.43
				c-1.27,0.53-2.64,0.8-4.09,0.8h-3.2c-0.82,0-1.74,0.02-2.76,0.07C19.3,25.98,19.21,25.93,19.14,25.83z M29.7,23.38
				c0.84-1.12,1.26-2.68,1.26-4.69c0-1.27-0.23-2.4-0.68-3.39c-0.45-1-1.12-1.77-1.98-2.33c-0.87-0.56-1.89-0.83-3.08-0.83
				l-1.81,0.02v11.33c0,0.6,0.18,1.02,0.54,1.24c0.36,0.22,0.95,0.34,1.77,0.34C27.54,25.06,28.86,24.5,29.7,23.38z"/>
			<path class="st0" d="M38.16,25.83c-0.07-0.1-0.1-0.22-0.1-0.36c0.02-0.23,0.07-0.37,0.15-0.42c0.08-0.05,0.23-0.07,0.43-0.07
				c0.45,0,0.78-0.08,1-0.24c0.22-0.16,0.35-0.36,0.41-0.6c0.05-0.24,0.09-0.55,0.1-0.94v-2.9c0-0.25-0.38-1.15-1.15-2.7
				c-0.76-1.55-1.39-2.76-1.86-3.63c-0.31-0.56-0.65-0.97-1.02-1.24c-0.37-0.27-0.83-0.46-1.37-0.57c-0.06-0.02-0.15-0.03-0.28-0.06
				c-0.12-0.02-0.21-0.07-0.24-0.14c-0.04-0.07-0.06-0.18-0.06-0.34c0-0.18,0.05-0.31,0.15-0.37s0.26-0.09,0.48-0.09
				c1.23,0,2.2,0.17,2.9,0.5s1.31,0.97,1.85,1.91c0.26,0.51,0.63,1.24,1.09,2.2c0.68,1.36,1.13,2.24,1.34,2.64h0.07l2.57-5.07
				c0.14-0.31,0.21-0.53,0.21-0.67c0-0.19-0.1-0.31-0.29-0.37c-0.19-0.06-0.51-0.09-0.94-0.09h-0.14c-0.15,0-0.26-0.03-0.32-0.08
				c-0.06-0.05-0.1-0.19-0.12-0.41c0-0.14,0.03-0.26,0.1-0.36c0.07-0.1,0.17-0.15,0.29-0.15c1,0.05,1.84,0.07,2.52,0.07
				c0.57,0,1.35-0.02,2.34-0.07c0.14,0,0.24,0.05,0.31,0.15c0.07,0.1,0.1,0.22,0.1,0.36c-0.02,0.22-0.05,0.35-0.12,0.41
				c-0.06,0.05-0.17,0.08-0.32,0.08c-0.63,0-1.14,0.12-1.53,0.36c-0.39,0.24-0.73,0.65-1.04,1.22l-2.62,4.93
				c-0.05,0.09-0.14,0.28-0.28,0.57c-0.14,0.29-0.23,0.55-0.28,0.79s-0.07,0.53-0.07,0.87v2.25c0.02,0.39,0.05,0.7,0.1,0.94
				c0.05,0.24,0.19,0.44,0.4,0.6c0.22,0.16,0.55,0.24,1,0.24h0.14c0.15,0,0.26,0.03,0.32,0.08c0.06,0.05,0.1,0.19,0.12,0.41
				c0,0.14-0.03,0.26-0.1,0.36c-0.07,0.1-0.17,0.15-0.29,0.15c-0.99-0.05-1.92-0.07-2.78-0.07c-0.91,0-1.87,0.02-2.87,0.07
				C38.33,25.98,38.23,25.93,38.16,25.83z"/>
			<path class="st0" d="M50.76,25.53c-0.86-0.56-1.28-1.39-1.28-2.49c0-0.56,0.19-1.02,0.57-1.38c0.38-0.36,0.87-0.54,1.47-0.54
				c0.35,0.02,0.63,0.1,0.81,0.27c0.18,0.16,0.28,0.31,0.28,0.45c0,0.02-0.08,0.07-0.23,0.16c-0.15,0.09-0.29,0.23-0.42,0.42
				c-0.12,0.19-0.18,0.44-0.18,0.76c0,0.73,0.22,1.29,0.66,1.68c0.44,0.39,1.12,0.59,2.05,0.59c0.63,0,1.19-0.12,1.67-0.37
				c0.48-0.25,0.85-0.58,1.1-0.98c0.25-0.41,0.38-0.84,0.38-1.29c0-0.56-0.16-1.03-0.48-1.44c-0.32-0.4-0.71-0.74-1.17-1.01
				c-0.46-0.27-1.1-0.58-1.9-0.94c-0.93-0.42-1.68-0.8-2.25-1.14c-0.57-0.34-1.06-0.79-1.46-1.36c-0.4-0.56-0.6-1.26-0.6-2.1
				c0-1.34,0.46-2.35,1.38-3.01c0.92-0.66,2.13-1,3.63-1c1.17,0,2.2,0.25,3.07,0.74c0.87,0.49,1.31,1.22,1.31,2.18
				c0,0.56-0.19,1.02-0.57,1.38c-0.38,0.36-0.87,0.55-1.47,0.55c-0.35-0.02-0.63-0.1-0.81-0.27s-0.28-0.31-0.28-0.45
				c0-0.02,0.1-0.07,0.31-0.16c0.21-0.09,0.39-0.23,0.56-0.42c0.16-0.18,0.24-0.44,0.24-0.76c0-0.57-0.22-1.02-0.66-1.34
				c-0.44-0.33-1-0.49-1.68-0.49c-0.94,0-1.66,0.22-2.14,0.66c-0.49,0.44-0.73,0.98-0.73,1.63c0,0.54,0.15,0.99,0.44,1.36
				c0.29,0.36,0.76,0.72,1.41,1.08c0.53,0.28,1.1,0.56,1.71,0.83c0.99,0.45,1.77,0.86,2.35,1.23c0.58,0.37,1.07,0.86,1.46,1.46
				c0.39,0.6,0.59,1.35,0.59,2.25c0,0.77-0.24,1.47-0.73,2.1c-0.49,0.63-1.14,1.12-1.97,1.47c-0.83,0.35-1.73,0.53-2.72,0.53
				C52.86,26.38,51.62,26.09,50.76,25.53z"/>
			<path class="st0" d="M63.27,25.53c-0.86-0.56-1.29-1.39-1.29-2.49c0-0.56,0.19-1.02,0.57-1.38c0.38-0.36,0.87-0.54,1.47-0.54
				c0.35,0.02,0.63,0.1,0.81,0.27c0.19,0.16,0.28,0.31,0.28,0.45c0,0.02-0.08,0.07-0.23,0.16c-0.15,0.09-0.29,0.23-0.42,0.42
				c-0.12,0.19-0.19,0.44-0.19,0.76c0,0.73,0.22,1.29,0.66,1.68c0.44,0.39,1.12,0.59,2.05,0.59c0.63,0,1.19-0.12,1.67-0.37
				c0.48-0.25,0.85-0.58,1.1-0.98c0.25-0.41,0.38-0.84,0.38-1.29c0-0.56-0.16-1.03-0.48-1.44c-0.32-0.4-0.71-0.74-1.17-1.01
				s-1.1-0.58-1.9-0.94c-0.93-0.42-1.68-0.8-2.25-1.14c-0.57-0.34-1.06-0.79-1.46-1.36c-0.4-0.56-0.6-1.26-0.6-2.1
				c0-1.34,0.46-2.35,1.38-3.01c0.92-0.66,2.13-1,3.63-1c1.17,0,2.2,0.25,3.07,0.74s1.31,1.22,1.31,2.18c0,0.56-0.19,1.02-0.57,1.38
				c-0.38,0.36-0.87,0.55-1.47,0.55c-0.36-0.02-0.63-0.1-0.81-0.27c-0.19-0.16-0.28-0.31-0.28-0.45c0-0.02,0.1-0.07,0.31-0.16
				c0.21-0.09,0.39-0.23,0.56-0.42c0.16-0.18,0.24-0.44,0.24-0.76c0-0.57-0.22-1.02-0.66-1.34c-0.44-0.33-1-0.49-1.68-0.49
				c-0.94,0-1.66,0.22-2.14,0.66c-0.49,0.44-0.73,0.98-0.73,1.63c0,0.54,0.15,0.99,0.44,1.36c0.29,0.36,0.76,0.72,1.41,1.08
				c0.53,0.28,1.1,0.56,1.71,0.83c0.99,0.45,1.77,0.86,2.35,1.23c0.58,0.37,1.07,0.86,1.46,1.46c0.39,0.6,0.59,1.35,0.59,2.25
				c0,0.77-0.24,1.47-0.73,2.1c-0.49,0.63-1.14,1.12-1.97,1.47c-0.83,0.35-1.73,0.53-2.72,0.53C65.37,26.38,64.13,26.09,63.27,25.53
				z"/>
			<path class="st0" d="M74.14,25.83c-0.07-0.1-0.1-0.22-0.1-0.36c0.02-0.23,0.06-0.37,0.14-0.42c0.08-0.05,0.22-0.07,0.44-0.07
				c0.45,0,0.78-0.08,1-0.24c0.22-0.16,0.35-0.36,0.41-0.6c0.05-0.24,0.09-0.55,0.1-0.94V14c-0.02-0.39-0.05-0.7-0.1-0.94
				c-0.05-0.24-0.19-0.44-0.41-0.6c-0.22-0.16-0.55-0.24-1-0.24h-0.14c-0.15,0-0.26-0.03-0.32-0.08c-0.06-0.05-0.1-0.19-0.12-0.41
				c0-0.14,0.04-0.26,0.1-0.36c0.07-0.1,0.17-0.15,0.29-0.15c1.02,0.05,1.94,0.07,2.76,0.07h7.28c0.4,0,0.6,0.18,0.6,0.55l0.07,3.24
				c0,0.14-0.07,0.25-0.21,0.34c-0.14,0.09-0.28,0.13-0.42,0.13c-0.18,0-0.35-0.03-0.49-0.1c-0.14-0.07-0.22-0.17-0.23-0.31
				c-0.12-0.76-0.26-1.33-0.4-1.73c-0.15-0.39-0.36-0.69-0.65-0.88c-0.29-0.19-0.69-0.3-1.22-0.31h-3.1v5.88h4.19
				c0.11,0.02,0.19,0.07,0.25,0.17c0.06,0.1,0.09,0.22,0.09,0.36c0,0.12-0.03,0.23-0.09,0.32c-0.06,0.09-0.15,0.14-0.25,0.14h-4.19
				v4.38c0.03,0.33,0.07,0.58,0.12,0.78s0.18,0.37,0.42,0.52c0.23,0.15,0.59,0.22,1.09,0.21h2.13c0.54-0.02,0.95-0.1,1.23-0.27
				c0.28-0.16,0.5-0.41,0.66-0.75s0.36-0.9,0.59-1.67c0.11-0.28,0.37-0.39,0.79-0.32c0.15,0.03,0.29,0.09,0.4,0.18
				c0.12,0.09,0.17,0.21,0.15,0.35l-0.46,2.92c-0.05,0.2-0.12,0.33-0.21,0.39c-0.09,0.06-0.25,0.09-0.46,0.09h-7.64
				c-0.83,0-1.76,0.02-2.78,0.07C74.3,25.98,74.21,25.93,74.14,25.83z"/>
			<path class="st0" d="M90.77,25.83c-0.07-0.1-0.1-0.22-0.1-0.36c0.02-0.23,0.07-0.37,0.15-0.42c0.08-0.05,0.23-0.07,0.43-0.07
				c0.45,0,0.78-0.08,1-0.24c0.22-0.16,0.35-0.36,0.41-0.6c0.05-0.24,0.09-0.55,0.1-0.94v-2.9c0-0.25-0.38-1.15-1.15-2.7
				c-0.76-1.55-1.39-2.76-1.86-3.63c-0.31-0.56-0.65-0.97-1.02-1.24c-0.37-0.27-0.83-0.46-1.37-0.57c-0.06-0.02-0.15-0.03-0.28-0.06
				c-0.12-0.02-0.21-0.07-0.24-0.14c-0.04-0.07-0.06-0.18-0.06-0.34c0-0.18,0.05-0.31,0.15-0.37c0.1-0.06,0.26-0.09,0.48-0.09
				c1.23,0,2.2,0.17,2.9,0.5s1.31,0.97,1.85,1.91c0.26,0.51,0.63,1.24,1.09,2.2c0.68,1.36,1.13,2.24,1.34,2.64h0.07l2.57-5.07
				c0.14-0.31,0.21-0.53,0.21-0.67c0-0.19-0.1-0.31-0.29-0.37c-0.19-0.06-0.51-0.09-0.94-0.09h-0.14c-0.15,0-0.26-0.03-0.32-0.08
				c-0.06-0.05-0.1-0.19-0.12-0.41c0-0.14,0.03-0.26,0.1-0.36c0.07-0.1,0.17-0.15,0.29-0.15c1,0.05,1.84,0.07,2.52,0.07
				c0.57,0,1.35-0.02,2.34-0.07c0.14,0,0.24,0.05,0.31,0.15c0.07,0.1,0.1,0.22,0.1,0.36c-0.02,0.22-0.05,0.35-0.12,0.41
				c-0.06,0.05-0.17,0.08-0.32,0.08c-0.63,0-1.14,0.12-1.53,0.36c-0.39,0.24-0.73,0.65-1.04,1.22l-2.62,4.93
				c-0.05,0.09-0.14,0.28-0.28,0.57s-0.23,0.55-0.28,0.79s-0.07,0.53-0.07,0.87v2.25c0.02,0.39,0.05,0.7,0.1,0.94
				c0.05,0.24,0.19,0.44,0.4,0.6c0.22,0.16,0.55,0.24,1,0.24h0.14c0.15,0,0.26,0.03,0.32,0.08c0.06,0.05,0.1,0.19,0.12,0.41
				c0,0.14-0.03,0.26-0.1,0.36c-0.07,0.1-0.17,0.15-0.29,0.15c-0.99-0.05-1.92-0.07-2.78-0.07c-0.91,0-1.87,0.02-2.87,0.07
				C90.95,25.98,90.84,25.93,90.77,25.83z"/>
		</g>
		<g>
			<g>
				<path class="st0" d="M24.58,33.75c-0.45-0.28-0.79-0.65-1.03-1.11c-0.24-0.46-0.36-0.96-0.36-1.49c0-0.65,0.15-1.21,0.44-1.69
					c0.29-0.48,0.67-0.85,1.12-1.1c0.46-0.26,0.92-0.38,1.39-0.38c0.59,0,1.11,0.14,1.57,0.42c0.45,0.28,0.8,0.65,1.04,1.11
					c0.24,0.46,0.36,0.95,0.36,1.48c0,0.65-0.15,1.21-0.44,1.7c-0.3,0.48-0.67,0.85-1.14,1.11c-0.46,0.26-0.93,0.38-1.4,0.38
					C25.54,34.17,25.02,34.03,24.58,33.75z M27.17,33.39c0.28-0.25,0.49-0.59,0.63-1.01c0.14-0.42,0.21-0.89,0.21-1.4
					c0-0.47-0.07-0.91-0.21-1.31c-0.14-0.4-0.35-0.71-0.64-0.95c-0.28-0.24-0.63-0.36-1.04-0.36c-0.62,0-1.08,0.26-1.39,0.78
					c-0.31,0.52-0.47,1.18-0.47,1.97c0,0.48,0.07,0.92,0.21,1.32c0.14,0.4,0.35,0.72,0.62,0.96c0.28,0.24,0.62,0.36,1.03,0.36
					C26.54,33.76,26.89,33.64,27.17,33.39z"/>
			</g>
			<g>
				<path class="st0" d="M30.42,33.95c-0.03-0.04-0.04-0.09-0.04-0.14c0.01-0.09,0.03-0.15,0.06-0.17c0.03-0.02,0.09-0.03,0.18-0.03
					c0.18,0,0.31-0.03,0.4-0.1c0.09-0.06,0.14-0.14,0.16-0.24c0.02-0.1,0.04-0.22,0.04-0.37v-3.67c-0.01-0.15-0.02-0.28-0.04-0.37
					c-0.02-0.1-0.08-0.18-0.16-0.24c-0.09-0.06-0.22-0.1-0.4-0.1h-0.06c-0.06,0-0.1-0.01-0.13-0.03c-0.02-0.02-0.04-0.08-0.05-0.16
					c0-0.06,0.01-0.1,0.04-0.14c0.03-0.04,0.07-0.06,0.12-0.06c0.4,0.02,0.77,0.03,1.1,0.03h2.67c0.16,0,0.24,0.07,0.24,0.22
					l0.03,1.29c0,0.06-0.03,0.1-0.08,0.13c-0.06,0.03-0.11,0.05-0.17,0.05c-0.07,0-0.14-0.01-0.2-0.04
					c-0.06-0.03-0.09-0.07-0.1-0.13c-0.04-0.3-0.09-0.53-0.15-0.69c-0.06-0.16-0.14-0.27-0.26-0.35c-0.11-0.08-0.28-0.12-0.49-0.12
					h-1.01v2.4h1.65c0.05,0.01,0.09,0.03,0.11,0.07c0.02,0.04,0.04,0.09,0.04,0.14c0,0.05-0.01,0.09-0.04,0.13
					c-0.03,0.04-0.06,0.06-0.11,0.06h-1.65v1.58c0.01,0.15,0.02,0.28,0.04,0.37c0.02,0.1,0.08,0.18,0.16,0.24
					c0.09,0.06,0.22,0.1,0.4,0.1h0.06c0.06,0,0.1,0.01,0.13,0.03c0.03,0.02,0.04,0.08,0.05,0.16c0,0.06-0.01,0.1-0.04,0.14
					c-0.03,0.04-0.07,0.06-0.12,0.06c-0.39-0.02-0.78-0.03-1.15-0.03c-0.34,0-0.71,0.01-1.11,0.03
					C30.48,34.01,30.45,33.99,30.42,33.95z"/>
			</g>
		</g>
	</g>
	<g>
		<g>
			<path class="st0" d="M39.2,44.21c-1.09-0.56-1.95-1.42-2.58-2.57c-0.63-1.15-0.95-2.57-0.95-4.25c0-1.56,0.34-2.93,1.03-4.12
				c0.69-1.19,1.64-2.11,2.86-2.77c1.22-0.66,2.62-0.98,4.19-0.98c0.77,0,1.54,0.12,2.29,0.35c0.76,0.23,1.38,0.6,1.88,1.09
				c0.49,0.49,0.74,1.1,0.74,1.83c0,0.68-0.2,1.27-0.6,1.76c-0.4,0.5-0.93,0.74-1.6,0.74c-0.32,0-0.64-0.08-0.94-0.23
				c-0.3-0.15-0.46-0.35-0.48-0.6c0-0.02,0.1-0.1,0.31-0.25c0.21-0.15,0.4-0.36,0.58-0.63c0.18-0.26,0.27-0.58,0.27-0.95
				c0-0.65-0.25-1.17-0.76-1.58c-0.51-0.4-1.17-0.6-1.97-0.6c-0.96,0-1.82,0.27-2.59,0.8c-0.77,0.53-1.38,1.31-1.83,2.34
				c-0.45,1.03-0.67,2.25-0.67,3.67c0,1.37,0.22,2.56,0.66,3.57c0.44,1,1.06,1.77,1.85,2.31c0.8,0.53,1.72,0.8,2.77,0.8
				c0.49,0,0.93-0.03,1.3-0.08c0.37-0.05,0.77-0.15,1.21-0.29v-2.36c0-0.54-0.02-0.92-0.06-1.13c-0.04-0.22-0.16-0.38-0.37-0.49
				c-0.21-0.11-0.56-0.16-1.05-0.16c-0.17,0-0.29-0.03-0.37-0.08c-0.08-0.05-0.12-0.19-0.14-0.4c0-0.14,0.04-0.26,0.13-0.36
				s0.2-0.15,0.36-0.15c0.97,0.05,1.82,0.07,2.55,0.07c0.69,0,1.53-0.02,2.5-0.07c0.14,0,0.25,0.05,0.32,0.15s0.12,0.22,0.12,0.36
				c-0.02,0.22-0.06,0.35-0.14,0.4c-0.08,0.05-0.2,0.08-0.37,0.08c-0.46,0-0.8,0.06-1,0.19c-0.2,0.12-0.32,0.3-0.37,0.52
				s-0.07,0.58-0.07,1.08v2.73c-0.91,0.43-1.75,0.73-2.5,0.89c-0.76,0.16-1.71,0.24-2.85,0.24C41.51,45.05,40.29,44.77,39.2,44.21z"
				/>
			<path class="st0" d="M56.55,44c-1.12-0.7-1.99-1.63-2.59-2.79c-0.61-1.16-0.91-2.4-0.91-3.73c0-1.62,0.37-3.03,1.1-4.24
				c0.73-1.21,1.67-2.13,2.81-2.77c1.14-0.64,2.3-0.96,3.47-0.96c1.48,0,2.79,0.35,3.93,1.06c1.13,0.7,2.01,1.63,2.62,2.78
				c0.61,1.15,0.92,2.39,0.92,3.72c0,1.62-0.37,3.04-1.11,4.25c-0.74,1.21-1.69,2.14-2.85,2.78c-1.16,0.64-2.32,0.96-3.5,0.96
				C58.97,45.05,57.67,44.7,56.55,44z M63.04,43.1c0.7-0.63,1.23-1.47,1.58-2.52c0.35-1.06,0.52-2.23,0.52-3.51
				c0-1.19-0.18-2.28-0.53-3.28c-0.35-1-0.89-1.79-1.6-2.39c-0.71-0.59-1.58-0.89-2.59-0.89c-1.54,0-2.71,0.65-3.49,1.96
				c-0.78,1.31-1.17,2.95-1.17,4.95c0,1.21,0.17,2.31,0.52,3.31c0.35,1,0.87,1.81,1.56,2.41c0.7,0.6,1.55,0.9,2.57,0.9
				C61.46,44.03,62.34,43.72,63.04,43.1z"/>
			<path class="st0" d="M71.19,44.51c-0.07-0.1-0.1-0.22-0.1-0.36c0.02-0.23,0.06-0.37,0.14-0.42s0.22-0.07,0.44-0.07
				c0.45,0,0.78-0.08,1-0.24c0.22-0.16,0.35-0.36,0.41-0.6c0.05-0.24,0.09-0.55,0.1-0.94v-9.2c-0.02-0.39-0.05-0.7-0.1-0.94
				c-0.05-0.24-0.19-0.44-0.41-0.6c-0.22-0.16-0.55-0.24-1-0.24h-0.14c-0.15,0-0.26-0.03-0.32-0.08c-0.06-0.05-0.1-0.19-0.12-0.41
				c0-0.14,0.04-0.26,0.1-0.36c0.07-0.1,0.17-0.15,0.29-0.15c1.02,0.05,1.94,0.07,2.76,0.07h3.62c1.48,0,2.83,0.3,4.04,0.89
				c1.21,0.59,2.17,1.45,2.87,2.56c0.7,1.11,1.05,2.43,1.05,3.94c0,1.58-0.4,2.91-1.19,4c-0.8,1.09-1.83,1.9-3.1,2.43
				c-1.27,0.53-2.64,0.8-4.09,0.8h-3.2c-0.82,0-1.74,0.02-2.76,0.07C71.36,44.66,71.26,44.61,71.19,44.51z M81.76,42.05
				c0.84-1.12,1.26-2.68,1.26-4.69c0-1.27-0.23-2.4-0.68-3.39c-0.45-1-1.12-1.77-1.98-2.33c-0.87-0.56-1.89-0.83-3.08-0.83
				l-1.81,0.02v11.33c0,0.6,0.18,1.02,0.54,1.24c0.36,0.22,0.95,0.34,1.77,0.34C79.59,43.73,80.92,43.17,81.76,42.05z"/>
			<path class="st0" d="M90.77,44.21c-0.86-0.56-1.28-1.39-1.28-2.49c0-0.56,0.19-1.02,0.57-1.38c0.38-0.36,0.87-0.54,1.47-0.54
				c0.35,0.02,0.63,0.1,0.81,0.27c0.18,0.16,0.28,0.31,0.28,0.45c0,0.02-0.08,0.07-0.23,0.16c-0.15,0.09-0.29,0.23-0.42,0.42
				c-0.12,0.19-0.18,0.44-0.18,0.76c0,0.73,0.22,1.29,0.66,1.68c0.44,0.39,1.12,0.59,2.05,0.59c0.63,0,1.19-0.12,1.67-0.37
				c0.48-0.25,0.85-0.58,1.1-0.98c0.25-0.41,0.38-0.84,0.38-1.29c0-0.56-0.16-1.03-0.48-1.44c-0.32-0.4-0.71-0.74-1.17-1.01
				c-0.46-0.27-1.1-0.58-1.9-0.94c-0.93-0.42-1.68-0.8-2.25-1.14c-0.57-0.34-1.06-0.79-1.46-1.36c-0.4-0.56-0.6-1.26-0.6-2.1
				c0-1.34,0.46-2.35,1.38-3.01c0.92-0.66,2.13-1,3.63-1c1.17,0,2.2,0.25,3.07,0.74s1.31,1.22,1.31,2.18c0,0.56-0.19,1.02-0.57,1.38
				c-0.38,0.36-0.87,0.55-1.47,0.55c-0.35-0.02-0.63-0.1-0.81-0.27c-0.19-0.16-0.28-0.31-0.28-0.45c0-0.02,0.1-0.07,0.31-0.16
				c0.21-0.09,0.39-0.23,0.56-0.42c0.16-0.18,0.24-0.44,0.24-0.76c0-0.57-0.22-1.02-0.66-1.34c-0.44-0.33-1-0.49-1.68-0.49
				c-0.94,0-1.66,0.22-2.14,0.66c-0.49,0.44-0.73,0.98-0.73,1.63c0,0.54,0.15,0.99,0.44,1.36c0.29,0.36,0.76,0.72,1.41,1.08
				c0.53,0.28,1.1,0.56,1.71,0.83c0.99,0.45,1.77,0.86,2.35,1.23c0.58,0.37,1.07,0.86,1.46,1.46c0.39,0.6,0.59,1.35,0.59,2.25
				c0,0.77-0.24,1.47-0.73,2.1c-0.49,0.63-1.14,1.12-1.97,1.47c-0.83,0.35-1.73,0.53-2.72,0.53C92.87,45.05,91.63,44.77,90.77,44.21
				z"/>
		</g>
		<g>
			<path class="st0" d="M6,25.32c-1.12-0.7-1.99-1.63-2.59-2.79c-0.61-1.16-0.92-2.4-0.92-3.73c0-1.62,0.37-3.03,1.1-4.24
				s1.67-2.13,2.81-2.77s2.3-0.96,3.48-0.96c1.48,0,2.79,0.35,3.93,1.06c1.14,0.7,2.01,1.63,2.62,2.78
				c0.61,1.15,0.91,2.39,0.91,3.72c0,1.62-0.37,3.04-1.11,4.25c-0.74,1.21-1.69,2.14-2.85,2.78c-1.16,0.64-2.33,0.96-3.5,0.96
				C8.41,26.38,7.12,26.02,6,25.32z M12.49,24.42c0.7-0.63,1.23-1.47,1.58-2.52c0.35-1.06,0.52-2.23,0.52-3.51
				c0-1.19-0.18-2.28-0.53-3.28c-0.36-1-0.89-1.79-1.6-2.39c-0.71-0.59-1.58-0.89-2.59-0.89c-1.54,0-2.71,0.65-3.49,1.96
				S5.2,16.74,5.2,18.73c0,1.21,0.17,2.31,0.52,3.31s0.87,1.81,1.56,2.41c0.69,0.6,1.55,0.9,2.57,0.9
				C10.91,25.36,11.79,25.04,12.49,24.42z"/>
			<path class="st0" d="M19.14,25.83c-0.07-0.1-0.1-0.22-0.1-0.36c0.02-0.23,0.06-0.37,0.14-0.42c0.08-0.05,0.22-0.07,0.44-0.07
				c0.45,0,0.78-0.08,1-0.24c0.22-0.16,0.35-0.36,0.41-0.6c0.05-0.24,0.09-0.55,0.1-0.94V14c-0.02-0.39-0.05-0.7-0.1-0.94
				c-0.05-0.24-0.19-0.44-0.41-0.6c-0.22-0.16-0.55-0.24-1-0.24h-0.14c-0.15,0-0.26-0.03-0.32-0.08c-0.06-0.05-0.1-0.19-0.12-0.41
				c0-0.14,0.04-0.26,0.1-0.36c0.07-0.1,0.17-0.15,0.29-0.15c1.02,0.05,1.94,0.07,2.76,0.07h3.62c1.48,0,2.83,0.3,4.04,0.89
				c1.21,0.59,2.17,1.45,2.87,2.56c0.7,1.11,1.05,2.43,1.05,3.94c0,1.58-0.4,2.91-1.19,4c-0.8,1.09-1.83,1.9-3.1,2.43
				c-1.27,0.53-2.64,0.8-4.09,0.8h-3.2c-0.82,0-1.74,0.02-2.76,0.07C19.3,25.98,19.21,25.93,19.14,25.83z M29.7,23.38
				c0.84-1.12,1.26-2.68,1.26-4.69c0-1.27-0.23-2.4-0.68-3.39c-0.45-1-1.12-1.77-1.98-2.33c-0.87-0.56-1.89-0.83-3.08-0.83
				l-1.81,0.02v11.33c0,0.6,0.18,1.02,0.54,1.24c0.36,0.22,0.95,0.34,1.77,0.34C27.54,25.06,28.86,24.5,29.7,23.38z"/>
			<path class="st0" d="M38.16,25.83c-0.07-0.1-0.1-0.22-0.1-0.36c0.02-0.23,0.07-0.37,0.15-0.42c0.08-0.05,0.23-0.07,0.43-0.07
				c0.45,0,0.78-0.08,1-0.24c0.22-0.16,0.35-0.36,0.41-0.6c0.05-0.24,0.09-0.55,0.1-0.94v-2.9c0-0.25-0.38-1.15-1.15-2.7
				c-0.76-1.55-1.39-2.76-1.86-3.63c-0.31-0.56-0.65-0.97-1.02-1.24c-0.37-0.27-0.83-0.46-1.37-0.57c-0.06-0.02-0.15-0.03-0.28-0.06
				c-0.12-0.02-0.21-0.07-0.24-0.14c-0.04-0.07-0.06-0.18-0.06-0.34c0-0.18,0.05-0.31,0.15-0.37s0.26-0.09,0.48-0.09
				c1.23,0,2.2,0.17,2.9,0.5s1.31,0.97,1.85,1.91c0.26,0.51,0.63,1.24,1.09,2.2c0.68,1.36,1.13,2.24,1.34,2.64h0.07l2.57-5.07
				c0.14-0.31,0.21-0.53,0.21-0.67c0-0.19-0.1-0.31-0.29-0.37c-0.19-0.06-0.51-0.09-0.94-0.09h-0.14c-0.15,0-0.26-0.03-0.32-0.08
				c-0.06-0.05-0.1-0.19-0.12-0.41c0-0.14,0.03-0.26,0.1-0.36c0.07-0.1,0.17-0.15,0.29-0.15c1,0.05,1.84,0.07,2.52,0.07
				c0.57,0,1.35-0.02,2.34-0.07c0.14,0,0.24,0.05,0.31,0.15c0.07,0.1,0.1,0.22,0.1,0.36c-0.02,0.22-0.05,0.35-0.12,0.41
				c-0.06,0.05-0.17,0.08-0.32,0.08c-0.63,0-1.14,0.12-1.53,0.36c-0.39,0.24-0.73,0.65-1.04,1.22l-2.62,4.93
				c-0.05,0.09-0.14,0.28-0.28,0.57c-0.14,0.29-0.23,0.55-0.28,0.79s-0.07,0.53-0.07,0.87v2.25c0.02,0.39,0.05,0.7,0.1,0.94
				c0.05,0.24,0.19,0.44,0.4,0.6c0.22,0.16,0.55,0.24,1,0.24h0.14c0.15,0,0.26,0.03,0.32,0.08c0.06,0.05,0.1,0.19,0.12,0.41
				c0,0.14-0.03,0.26-0.1,0.36c-0.07,0.1-0.17,0.15-0.29,0.15c-0.99-0.05-1.92-0.07-2.78-0.07c-0.91,0-1.87,0.02-2.87,0.07
				C38.33,25.98,38.23,25.93,38.16,25.83z"/>
			<path class="st0" d="M50.76,25.53c-0.86-0.56-1.28-1.39-1.28-2.49c0-0.56,0.19-1.02,0.57-1.38c0.38-0.36,0.87-0.54,1.47-0.54
				c0.35,0.02,0.63,0.1,0.81,0.27c0.18,0.16,0.28,0.31,0.28,0.45c0,0.02-0.08,0.07-0.23,0.16c-0.15,0.09-0.29,0.23-0.42,0.42
				c-0.12,0.19-0.18,0.44-0.18,0.76c0,0.73,0.22,1.29,0.66,1.68c0.44,0.39,1.12,0.59,2.05,0.59c0.63,0,1.19-0.12,1.67-0.37
				c0.48-0.25,0.85-0.58,1.1-0.98c0.25-0.41,0.38-0.84,0.38-1.29c0-0.56-0.16-1.03-0.48-1.44c-0.32-0.4-0.71-0.74-1.17-1.01
				c-0.46-0.27-1.1-0.58-1.9-0.94c-0.93-0.42-1.68-0.8-2.25-1.14c-0.57-0.34-1.06-0.79-1.46-1.36c-0.4-0.56-0.6-1.26-0.6-2.1
				c0-1.34,0.46-2.35,1.38-3.01c0.92-0.66,2.13-1,3.63-1c1.17,0,2.2,0.25,3.07,0.74c0.87,0.49,1.31,1.22,1.31,2.18
				c0,0.56-0.19,1.02-0.57,1.38c-0.38,0.36-0.87,0.55-1.47,0.55c-0.35-0.02-0.63-0.1-0.81-0.27s-0.28-0.31-0.28-0.45
				c0-0.02,0.1-0.07,0.31-0.16c0.21-0.09,0.39-0.23,0.56-0.42c0.16-0.18,0.24-0.44,0.24-0.76c0-0.57-0.22-1.02-0.66-1.34
				c-0.44-0.33-1-0.49-1.68-0.49c-0.94,0-1.66,0.22-2.14,0.66c-0.49,0.44-0.73,0.98-0.73,1.63c0,0.54,0.15,0.99,0.44,1.36
				c0.29,0.36,0.76,0.72,1.41,1.08c0.53,0.28,1.1,0.56,1.71,0.83c0.99,0.45,1.77,0.86,2.35,1.23c0.58,0.37,1.07,0.86,1.46,1.46
				c0.39,0.6,0.59,1.35,0.59,2.25c0,0.77-0.24,1.47-0.73,2.1c-0.49,0.63-1.14,1.12-1.97,1.47c-0.83,0.35-1.73,0.53-2.72,0.53
				C52.86,26.38,51.62,26.09,50.76,25.53z"/>
			<path class="st0" d="M63.27,25.53c-0.86-0.56-1.29-1.39-1.29-2.49c0-0.56,0.19-1.02,0.57-1.38c0.38-0.36,0.87-0.54,1.47-0.54
				c0.35,0.02,0.63,0.1,0.81,0.27c0.19,0.16,0.28,0.31,0.28,0.45c0,0.02-0.08,0.07-0.23,0.16c-0.15,0.09-0.29,0.23-0.42,0.42
				c-0.12,0.19-0.19,0.44-0.19,0.76c0,0.73,0.22,1.29,0.66,1.68c0.44,0.39,1.12,0.59,2.05,0.59c0.63,0,1.19-0.12,1.67-0.37
				c0.48-0.25,0.85-0.58,1.1-0.98c0.25-0.41,0.38-0.84,0.38-1.29c0-0.56-0.16-1.03-0.48-1.44c-0.32-0.4-0.71-0.74-1.17-1.01
				s-1.1-0.58-1.9-0.94c-0.93-0.42-1.68-0.8-2.25-1.14c-0.57-0.34-1.06-0.79-1.46-1.36c-0.4-0.56-0.6-1.26-0.6-2.1
				c0-1.34,0.46-2.35,1.38-3.01c0.92-0.66,2.13-1,3.63-1c1.17,0,2.2,0.25,3.07,0.74s1.31,1.22,1.31,2.18c0,0.56-0.19,1.02-0.57,1.38
				c-0.38,0.36-0.87,0.55-1.47,0.55c-0.36-0.02-0.63-0.1-0.81-0.27c-0.19-0.16-0.28-0.31-0.28-0.45c0-0.02,0.1-0.07,0.31-0.16
				c0.21-0.09,0.39-0.23,0.56-0.42c0.16-0.18,0.24-0.44,0.24-0.76c0-0.57-0.22-1.02-0.66-1.34c-0.44-0.33-1-0.49-1.68-0.49
				c-0.94,0-1.66,0.22-2.14,0.66c-0.49,0.44-0.73,0.98-0.73,1.63c0,0.54,0.15,0.99,0.44,1.36c0.29,0.36,0.76,0.72,1.41,1.08
				c0.53,0.28,1.1,0.56,1.71,0.83c0.99,0.45,1.77,0.86,2.35,1.23c0.58,0.37,1.07,0.86,1.46,1.46c0.39,0.6,0.59,1.35,0.59,2.25
				c0,0.77-0.24,1.47-0.73,2.1c-0.49,0.63-1.14,1.12-1.97,1.47c-0.83,0.35-1.73,0.53-2.72,0.53C65.37,26.38,64.13,26.09,63.27,25.53
				z"/>
			<path class="st0" d="M74.14,25.83c-0.07-0.1-0.1-0.22-0.1-0.36c0.02-0.23,0.06-0.37,0.14-0.42c0.08-0.05,0.22-0.07,0.44-0.07
				c0.45,0,0.78-0.08,1-0.24c0.22-0.16,0.35-0.36,0.41-0.6c0.05-0.24,0.09-0.55,0.1-0.94V14c-0.02-0.39-0.05-0.7-0.1-0.94
				c-0.05-0.24-0.19-0.44-0.41-0.6c-0.22-0.16-0.55-0.24-1-0.24h-0.14c-0.15,0-0.26-0.03-0.32-0.08c-0.06-0.05-0.1-0.19-0.12-0.41
				c0-0.14,0.04-0.26,0.1-0.36c0.07-0.1,0.17-0.15,0.29-0.15c1.02,0.05,1.94,0.07,2.76,0.07h7.28c0.4,0,0.6,0.18,0.6,0.55l0.07,3.24
				c0,0.14-0.07,0.25-0.21,0.34c-0.14,0.09-0.28,0.13-0.42,0.13c-0.18,0-0.35-0.03-0.49-0.1c-0.14-0.07-0.22-0.17-0.23-0.31
				c-0.12-0.76-0.26-1.33-0.4-1.73c-0.15-0.39-0.36-0.69-0.65-0.88c-0.29-0.19-0.69-0.3-1.22-0.31h-3.1v5.88h4.19
				c0.11,0.02,0.19,0.07,0.25,0.17c0.06,0.1,0.09,0.22,0.09,0.36c0,0.12-0.03,0.23-0.09,0.32c-0.06,0.09-0.15,0.14-0.25,0.14h-4.19
				v4.38c0.03,0.33,0.07,0.58,0.12,0.78s0.18,0.37,0.42,0.52c0.23,0.15,0.59,0.22,1.09,0.21h2.13c0.54-0.02,0.95-0.1,1.23-0.27
				c0.28-0.16,0.5-0.41,0.66-0.75s0.36-0.9,0.59-1.67c0.11-0.28,0.37-0.39,0.79-0.32c0.15,0.03,0.29,0.09,0.4,0.18
				c0.12,0.09,0.17,0.21,0.15,0.35l-0.46,2.92c-0.05,0.2-0.12,0.33-0.21,0.39c-0.09,0.06-0.25,0.09-0.46,0.09h-7.64
				c-0.83,0-1.76,0.02-2.78,0.07C74.3,25.98,74.21,25.93,74.14,25.83z"/>
			<path class="st0" d="M90.77,25.83c-0.07-0.1-0.1-0.22-0.1-0.36c0.02-0.23,0.07-0.37,0.15-0.42c0.08-0.05,0.23-0.07,0.43-0.07
				c0.45,0,0.78-0.08,1-0.24c0.22-0.16,0.35-0.36,0.41-0.6c0.05-0.24,0.09-0.55,0.1-0.94v-2.9c0-0.25-0.38-1.15-1.15-2.7
				c-0.76-1.55-1.39-2.76-1.86-3.63c-0.31-0.56-0.65-0.97-1.02-1.24c-0.37-0.27-0.83-0.46-1.37-0.57c-0.06-0.02-0.15-0.03-0.28-0.06
				c-0.12-0.02-0.21-0.07-0.24-0.14c-0.04-0.07-0.06-0.18-0.06-0.34c0-0.18,0.05-0.31,0.15-0.37c0.1-0.06,0.26-0.09,0.48-0.09
				c1.23,0,2.2,0.17,2.9,0.5s1.31,0.97,1.85,1.91c0.26,0.51,0.63,1.24,1.09,2.2c0.68,1.36,1.13,2.24,1.34,2.64h0.07l2.57-5.07
				c0.14-0.31,0.21-0.53,0.21-0.67c0-0.19-0.1-0.31-0.29-0.37c-0.19-0.06-0.51-0.09-0.94-0.09h-0.14c-0.15,0-0.26-0.03-0.32-0.08
				c-0.06-0.05-0.1-0.19-0.12-0.41c0-0.14,0.03-0.26,0.1-0.36c0.07-0.1,0.17-0.15,0.29-0.15c1,0.05,1.84,0.07,2.52,0.07
				c0.57,0,1.35-0.02,2.34-0.07c0.14,0,0.24,0.05,0.31,0.15c0.07,0.1,0.1,0.22,0.1,0.36c-0.02,0.22-0.05,0.35-0.12,0.41
				c-0.06,0.05-0.17,0.08-0.32,0.08c-0.63,0-1.14,0.12-1.53,0.36c-0.39,0.24-0.73,0.65-1.04,1.22l-2.62,4.93
				c-0.05,0.09-0.14,0.28-0.28,0.57s-0.23,0.55-0.28,0.79s-0.07,0.53-0.07,0.87v2.25c0.02,0.39,0.05,0.7,0.1,0.94
				c0.05,0.24,0.19,0.44,0.4,0.6c0.22,0.16,0.55,0.24,1,0.24h0.14c0.15,0,0.26,0.03,0.32,0.08c0.06,0.05,0.1,0.19,0.12,0.41
				c0,0.14-0.03,0.26-0.1,0.36c-0.07,0.1-0.17,0.15-0.29,0.15c-0.99-0.05-1.92-0.07-2.78-0.07c-0.91,0-1.87,0.02-2.87,0.07
				C90.95,25.98,90.84,25.93,90.77,25.83z"/>
		</g>
		<g>
			<g>
				<path class="st0" d="M24.58,33.75c-0.45-0.28-0.79-0.65-1.03-1.11c-0.24-0.46-0.36-0.96-0.36-1.49c0-0.65,0.15-1.21,0.44-1.69
					c0.29-0.48,0.67-0.85,1.12-1.1c0.46-0.26,0.92-0.38,1.39-0.38c0.59,0,1.11,0.14,1.57,0.42c0.45,0.28,0.8,0.65,1.04,1.11
					c0.24,0.46,0.36,0.95,0.36,1.48c0,0.65-0.15,1.21-0.44,1.7c-0.3,0.48-0.67,0.85-1.14,1.11c-0.46,0.26-0.93,0.38-1.4,0.38
					C25.54,34.17,25.02,34.03,24.58,33.75z M27.17,33.39c0.28-0.25,0.49-0.59,0.63-1.01c0.14-0.42,0.21-0.89,0.21-1.4
					c0-0.47-0.07-0.91-0.21-1.31c-0.14-0.4-0.35-0.71-0.64-0.95c-0.28-0.24-0.63-0.36-1.04-0.36c-0.62,0-1.08,0.26-1.39,0.78
					c-0.31,0.52-0.47,1.18-0.47,1.97c0,0.48,0.07,0.92,0.21,1.32c0.14,0.4,0.35,0.72,0.62,0.96c0.28,0.24,0.62,0.36,1.03,0.36
					C26.54,33.76,26.89,33.64,27.17,33.39z"/>
			</g>
			<g>
				<path class="st0" d="M30.42,33.95c-0.03-0.04-0.04-0.09-0.04-0.14c0.01-0.09,0.03-0.15,0.06-0.17c0.03-0.02,0.09-0.03,0.18-0.03
					c0.18,0,0.31-0.03,0.4-0.1c0.09-0.06,0.14-0.14,0.16-0.24c0.02-0.1,0.04-0.22,0.04-0.37v-3.67c-0.01-0.15-0.02-0.28-0.04-0.37
					c-0.02-0.1-0.08-0.18-0.16-0.24c-0.09-0.06-0.22-0.1-0.4-0.1h-0.06c-0.06,0-0.1-0.01-0.13-0.03c-0.02-0.02-0.04-0.08-0.05-0.16
					c0-0.06,0.01-0.1,0.04-0.14c0.03-0.04,0.07-0.06,0.12-0.06c0.4,0.02,0.77,0.03,1.1,0.03h2.67c0.16,0,0.24,0.07,0.24,0.22
					l0.03,1.29c0,0.06-0.03,0.1-0.08,0.13c-0.06,0.03-0.11,0.05-0.17,0.05c-0.07,0-0.14-0.01-0.2-0.04
					c-0.06-0.03-0.09-0.07-0.1-0.13c-0.04-0.3-0.09-0.53-0.15-0.69c-0.06-0.16-0.14-0.27-0.26-0.35c-0.11-0.08-0.28-0.12-0.49-0.12
					h-1.01v2.4h1.65c0.05,0.01,0.09,0.03,0.11,0.07c0.02,0.04,0.04,0.09,0.04,0.14c0,0.05-0.01,0.09-0.04,0.13
					c-0.03,0.04-0.06,0.06-0.11,0.06h-1.65v1.58c0.01,0.15,0.02,0.28,0.04,0.37c0.02,0.1,0.08,0.18,0.16,0.24
					c0.09,0.06,0.22,0.1,0.4,0.1h0.06c0.06,0,0.1,0.01,0.13,0.03c0.03,0.02,0.04,0.08,0.05,0.16c0,0.06-0.01,0.1-0.04,0.14
					c-0.03,0.04-0.07,0.06-0.12,0.06c-0.39-0.02-0.78-0.03-1.15-0.03c-0.34,0-0.71,0.01-1.11,0.03
					C30.48,34.01,30.45,33.99,30.42,33.95z"/>
			</g>
		</g>
	</g>
</g>
</svg>
